<svg width="128" height="128" viewBox="0 0 128 128" fill="none" xmlns="http://www.w3.org/2000/svg">
<g clip-path="url(#clip0_501_2)">
<path d="M128 64C128 72.4 126.375 80.4375 123.438 87.7875C123.263 88.2375 123.075 88.6875 122.875 89.1375C121.862 91.5125 120.713 93.8125 119.425 96.025C118.85 97.0125 118.262 97.9875 117.637 98.9375C116.762 100.275 115.85 101.575 114.875 102.838C114.55 103.263 114.225 103.687 113.887 104.1C112.937 105.287 111.938 106.438 110.9 107.55C110.8 107.65 110.713 107.763 110.613 107.863C98.9375 120.263 82.375 128 64 128C59.7375 128 55.5625 127.587 51.5375 126.787C39.0125 124.312 27.8 118.188 19.05 109.562C18.4125 108.938 17.7875 108.3 17.1875 107.637C13.1875 103.35 9.775 98.5125 7.0625 93.25C6.75 92.65 6.45 92.0375 6.1625 91.425C4.85 88.6625 3.725 85.7875 2.8125 82.8125C2.225 80.8875 1.7125 78.925 1.3125 76.9125C0.45 72.75 0 68.425 0 64C0 53.4 2.575 43.4125 7.1375 34.6125C8.3 32.375 9.5875 30.2 11 28.125C22.5 11.15 41.95 0 64 0C89.05 0 110.738 14.3875 121.25 35.3625C122.562 37.975 123.7 40.7 124.65 43.5C125.25 45.2625 125.763 47.05 126.213 48.875C126.313 49.2875 126.413 49.7 126.5 50.125C127.3 53.7625 127.8 57.525 127.95 61.375C127.987 62.2375 128 63.125 128 64Z" fill="#1F6346"/>
<path d="M20.3047 37.0909H107.695V90.9091H20.3047V37.0909Z" fill="#B1E7D0"/>
<path d="M20.3047 37.0909L63.995 68.4087L107.695 37.0909" stroke="#1F6346" stroke-width="10"/>
</g>
<defs>
<clipPath id="clip0_501_2">
<rect width="128" height="128" fill="white"/>
</clipPath>
</defs>
</svg>
